# xmcd
#
# Track frame offsets:
#       150
#       32674
#       57513
#       95002
#       127374
#       153909
#       199741
#
# Disc length: 3036 seconds
#
# Revision: 1
# Processed by: cddbd v1.5.2PL0 Copyright (c) Steve Scherf et al.
# Submitted via: FreeDbEdit v0.1
#
DISCID=620bda07
DTITLE=Joe Bonamassa - A New Day Yesterday [CD1] (Antt Edit)
DYEAR=2005
DGENRE=Blues
TTITLE0=Cradle Rock
TTITLE1=Steppin Out - Rice Pudding
TTITLE2=A New Day Yesterday
TTITLE3=Miss You, Hate You
TTITLE4=Walk in My Shadows
TTITLE5=I Know Where I Belong
TTITLE6=Colour and Shape
EXTD=YEAR: 2005
EXTT0=
EXTT1=
EXTT2=
EXTT3=
EXTT4=
EXTT5=
EXTT6=
PLAYORDER=
